Coordinates
version=1
nRows=6
nColumns=36
inDegrees=yes

Units are S.I. units (second, meters, Newtons, ...)
If the header above contains a line with 'inDegrees', this indicates whether rotational values are in degrees (yes) or radians (no).

endheader
time	pelvis_tilt	pelvis_list	pelvis_rotation	pelvis_tx	pelvis_ty	pelvis_tz	hip_flexion_r	hip_adduction_r	hip_rotation_r	knee_angle_r	knee_angle_r_beta	ankle_angle_r	subtalar_angle_r	mtp_angle_r	hip_flexion_l	hip_adduction_l	hip_rotation_l	knee_angle_l	knee_angle_l_beta	ankle_angle_l	subtalar_angle_l	mtp_angle_l	lumbar_extension	lumbar_bending	lumbar_rotation	arm_flex_r	arm_add_r	arm_rot_r	elbow_flex_r	pro_sup_r	arm_flex_l	arm_add_l	arm_rot_l	elbow_flex_l	pro_sup_l
      2.96666670	    -16.17178366	      0.39148235	      0.46879823	      0.50744788	      1.54960740	     -0.03163908	      2.96978439	     -8.26359568	    -22.97313956	      3.93385182	      0.06865867	    -22.54123886	      3.89381883	     -7.49999987	      6.57308273	     -9.69964603	    -19.61837220	      6.20178708	      0.10824160	    -28.78666448	      3.01404155	     -7.49999987	     13.97725686	      0.75570915	     -2.50611131	    163.38497475	     -6.86329322	     71.21735167	     20.16666854	     65.59804806	    169.44706894	     -8.60454830	     91.04771969	     23.12083772	     65.74828803
      2.97083330	    -16.19128620	      0.10897271	      0.59059207	      0.50854155	      1.55636301	     -0.03095244	      3.14670138	     -7.95046885	    -22.73248124	      3.81738380	      0.06662592	    -22.01234130	      4.28741260	     -7.49999987	      6.60132280	    -10.13445551	    -19.78911490	      5.87645671	      0.10256352	    -28.86612639	      3.49108271	     -7.49999987	     13.95076170	      0.91967815	     -2.72229167	    163.34813657	     -7.00578035	     71.22630890	     20.27203346	     65.58770962	    169.30333330	     -8.67988133	     90.96873372	     23.19477881	     65.74381243
      2.97500000	    -16.08367789	      0.20478062	      0.62410366	      0.50818736	      1.55194801	     -0.03195932	      3.19901346	     -7.92146457	    -22.21534382	      4.00957675	      0.06998032	    -20.66153324	      5.34348458	     -7.49999987	      6.60666654	    -10.20835551	    -19.70106182	      6.11490649	      0.10672525	    -28.25825611	      4.17485272	     -7.49999987	     13.93858962	      0.88769065	     -2.71576227	    163.36360026	     -6.66243866	     71.43684774	     20.06228349	     65.44476472	    169.01795578	     -8.84722522	     90.34264268	     23.26644685	     65.81566767
      2.97916670	    -16.00433855	      0.45945047	      0.56011214	      0.50795050	      1.55720334	     -0.03182676	      3.14889032	     -8.25823479	    -21.77171219	      3.91100958	      0.06825999	    -20.59900331	      5.56956535	     -7.49999987	      6.79350440	    -10.30161428	    -19.44751066	      6.27022960	      0.10943615	    -28.24408242	      4.19826095	     -7.49999987	     13.82781290	      0.57403212	     -2.68704075	    163.28008325	     -6.77957269	     71.44292029	     20.09218121	     65.43391314	    168.91831408	     -8.89821801	     90.36275011	     23.33992237	     65.82053476
      2.98333330	    -15.86959066	      0.59399654	      0.66107429	      0.50806011	      1.55487808	     -0.03302212	      3.13899335	     -8.47813132	    -21.55242600	      4.23939215	      0.07399135	    -19.53778838	      5.29868205	     -7.49999987	      6.80449020	    -10.16686601	    -19.16839099	      6.24943246	      0.10907317	    -27.11403669	      3.77144039	     -7.49999987	     13.74480371	      0.35336213	     -2.70880800	    163.35421152	     -6.74825101	     71.91170948	     19.75128179	     65.40019729	    168.80216422	     -8.71297684	     90.59040423	     23.05556119	     65.99044705
      2.98750000	    -15.85479961	      0.68332439	      0.72849633	      0.50992849	      1.56239405	     -0.03443281	      3.02930580	     -8.68858967	    -21.12521294	      3.78180123	      0.06600488	    -19.17237668	      5.95340590	     -7.49999987	      6.80872893	    -10.22098916	    -19.79750211	      5.72755320	      0.09996466	    -25.79452969	      3.20789635	     -7.49999987	     13.75709569	      0.21678355	     -2.88564671	    163.28514599	     -6.79348788	     72.08165514	     19.51368148	     65.32803133	    168.75619322	     -8.45415608	     90.64521180	     22.66652453	     65.97863310
